<svg width="24" height="24" viewBox="0 0 24 24" fill="none" xmlns="http://www.w3.org/2000/svg">
<path d="M21.057 7.18078C21.0663 7.39198 21.0663 7.59358 21.0663 7.80478C21.0755 14.208 16.3711 21.6 7.76783 21.6C5.23038 21.6 2.73924 20.8416 0.6 19.4208C0.970431 19.4688 1.34086 19.488 1.71129 19.488C3.81349 19.488 5.86011 18.7584 7.51779 17.4048C5.51747 17.3664 3.75792 16.0128 3.14671 14.0352C3.85053 14.1792 4.57287 14.1504 5.25816 13.9488C3.08188 13.5072 1.51682 11.52 1.50756 9.20639C1.50756 9.18719 1.50756 9.16799 1.50756 9.14879C2.15581 9.52319 2.88741 9.73439 3.62827 9.75359C1.58164 8.33278 0.942649 5.50077 2.18359 3.28317C4.56361 6.31678 8.06418 8.15038 11.824 8.35198C11.4444 6.67198 11.963 4.90557 13.1761 3.71517C15.0561 1.88156 18.0195 1.97756 19.7976 3.92637C20.844 3.71517 21.8535 3.31197 22.7703 2.74556C22.4184 3.86877 21.6868 4.81917 20.7144 5.42397C21.6405 5.30877 22.548 5.04957 23.4 4.66557C22.7703 5.64477 21.9738 6.48958 21.057 7.18078Z" fill="#07689F"/>
</svg>
