<svg width="21" height="20" viewBox="0 0 21 20" fill="none" xmlns="http://www.w3.org/2000/svg">
<path d="M10.5 18.3332C12.8012 18.3332 14.8845 17.4004 16.3925 15.8924C17.9006 14.3843 18.8333 12.301 18.8333 9.99984C18.8333 7.69867 17.9006 5.61534 16.3925 4.10728C14.8845 2.59925 12.8012 1.6665 10.5 1.6665C8.19883 1.6665 6.1155 2.59925 4.60744 4.10728C3.09941 5.61534 2.16667 7.69867 2.16667 9.99984C2.16667 12.301 3.09941 14.3843 4.60744 15.8924C6.1155 17.4004 8.19883 18.3332 10.5 18.3332Z" stroke="#043E5F" stroke-width="2" stroke-linejoin="round"/>
<path d="M10.5 11.9269V10.2603C11.8807 10.2603 13 9.14096 13 7.76025C13 6.37955 11.8807 5.26025 10.5 5.26025C9.11929 5.26025 8 6.37955 8 7.76025" stroke="#043E5F" stroke-width="2" stroke-linecap="round" stroke-linejoin="round"/>
<path fill-rule="evenodd" clip-rule="evenodd" d="M10.5 15.6771C11.0753 15.6771 11.5417 15.2107 11.5417 14.6354C11.5417 14.0601 11.0753 13.5938 10.5 13.5938C9.92471 13.5938 9.45833 14.0601 9.45833 14.6354C9.45833 15.2107 9.92471 15.6771 10.5 15.6771Z" fill="#043E5F"/>
</svg>
