<svg width="16" height="16" viewBox="0 0 16 16" fill="none" xmlns="http://www.w3.org/2000/svg">
<path d="M12.3381 4.8772L12.2983 5.10787C11.7734 7.78849 9.99158 8.7112 7.70868 8.7112H6.54735C6.41292 8.71147 6.283 8.75968 6.18094 8.84716C6.07888 8.93464 6.01137 9.05566 5.99054 9.18846L5.39396 12.9588L5.22692 14.0247C5.21994 14.0672 5.22235 14.1106 5.23398 14.152C5.24562 14.1934 5.26618 14.2318 5.29424 14.2644C5.3223 14.297 5.35717 14.3231 5.39638 14.3408C5.4356 14.3584 5.47822 14.3673 5.52123 14.3667H7.58141C7.69953 14.3683 7.81427 14.3274 7.90478 14.2515C7.99528 14.1756 8.05554 14.0697 8.07458 13.9531V13.8497L8.45639 11.3918V11.2566C8.4737 11.1386 8.53321 11.0308 8.62389 10.9533C8.71457 10.8758 8.83027 10.8337 8.94956 10.835H9.25978C11.2563 10.835 12.8154 10.0396 13.237 7.65327C13.3595 7.25088 13.3859 6.82535 13.3141 6.4109C13.2422 5.99645 13.0741 5.60464 12.8233 5.26696C12.6833 5.11208 12.5195 4.98051 12.3381 4.8772Z" fill="#179BD7"/>
<path d="M11.7893 4.66246L11.5427 4.59883L11.2802 4.5511C10.9432 4.50035 10.6028 4.47642 10.262 4.47951H7.15983C7.04191 4.48017 6.92812 4.52305 6.83911 4.6004C6.75009 4.67774 6.69173 4.78442 6.67462 4.90109L6.0144 9.07713V9.19645C6.03523 9.06365 6.10274 8.94263 6.2048 8.85515C6.30687 8.76766 6.43679 8.71946 6.57121 8.71918H7.73254C10.0154 8.71918 11.7972 7.79648 12.3222 5.11586C12.3222 5.03632 12.3222 4.95678 12.362 4.88519C12.2242 4.81225 12.0805 4.75105 11.9324 4.70224L11.7893 4.66246Z" fill="#222D65"/>
<path d="M6.66665 4.8932C6.68376 4.77653 6.74212 4.66984 6.83114 4.5925C6.92016 4.51516 7.03394 4.47227 7.15186 4.47162H10.2541C10.5975 4.4681 10.9406 4.49204 11.2802 4.54321L11.5427 4.59093L11.7893 4.65457H11.9086C12.0566 4.70356 12.2002 4.76475 12.3381 4.83752C12.4387 4.44341 12.4428 4.03085 12.35 3.63482C12.2573 3.2388 12.0704 2.87098 11.8052 2.56257C11.2165 1.89441 10.1507 1.6001 8.79046 1.6001H4.81328C4.67886 1.60037 4.54894 1.64858 4.44688 1.73606C4.34482 1.82354 4.27731 1.94456 4.25648 2.07736L2.61788 12.5692C2.6111 12.6172 2.61464 12.6662 2.62826 12.7128C2.64188 12.7595 2.66527 12.8026 2.69688 12.8395C2.72848 12.8764 2.76758 12.9061 2.81156 12.9267C2.85554 12.9473 2.90341 12.9583 2.95197 12.9589H5.39395L6.00644 9.06924L6.66665 4.8932Z" fill="#253B80"/>
</svg>
