<svg width="30" height="30" viewBox="0 0 30 30" fill="none" xmlns="http://www.w3.org/2000/svg">
<path d="M29.449 12.5701C30.7625 20.5171 25.4426 28.0701 17.4299 29.4493C16.1163 29.6464 14.7371 29.712 13.4892 29.5807C9.3515 29.1209 5.60785 26.9536 3.17776 23.604L26.8218 16.7735C27.1502 16.7078 27.0845 16.3794 26.8218 16.3794L16.9045 17.0362C18.2837 15.657 19.4002 14.015 19.2689 11.7163C19.0062 8.03831 15.2625 4.36034 8.23497 1.99593C9.61421 1.27348 11.0591 0.748052 12.6354 0.48534C13.949 0.288306 15.3282 0.222628 16.5761 0.353984C22.8812 1.07644 28.3324 5.93661 29.449 12.5701ZM0.550645 17.4303C0.879035 19.4006 1.60149 21.2396 2.58666 22.8159C6.33031 21.765 9.67989 19.7947 10.8621 15.3286C12.1756 10.4684 10.6651 5.34551 7.11844 2.65271C2.38963 5.6739 -0.434524 11.3879 0.550645 17.4303Z" fill="#C90019"/>
</svg>
