<svg width="58" height="14" viewBox="0 0 58 14" fill="none" xmlns="http://www.w3.org/2000/svg">
<path fill-rule="evenodd" clip-rule="evenodd" d="M14.3131 13.8903H9.35847L5.6431 3.02951C5.46676 2.52991 5.09232 2.08824 4.54154 1.88008C3.167 1.35695 1.65235 0.940616 0 0.730641V0.3125H7.98151C9.08308 0.3125 9.90925 0.940616 10.0469 1.6701L11.9747 9.50436L16.9269 0.3125H21.7438L14.3131 13.8903ZM24.4979 13.8903H19.8187L23.6717 0.3125H28.351L24.4979 13.8903ZM34.4048 4.07461C34.5425 3.34332 35.3686 2.92518 36.3325 2.92518C37.8471 2.82019 39.4971 3.03016 40.874 3.55148L41.7002 0.628116C40.3233 0.209975 38.8086 0 37.4341 0C32.8925 0 29.5878 1.88073 29.5878 4.49094C29.5878 6.47666 31.9287 7.51929 33.581 8.14741C35.3686 8.77372 36.0571 9.19186 35.9194 9.81816C35.9194 10.7576 34.5425 11.1758 33.1679 11.1758C31.5156 11.1758 29.8632 10.8626 28.351 10.3395L27.5248 13.2647C29.1772 13.786 30.9648 13.996 32.6171 13.996C37.7094 14.0991 40.874 12.2202 40.874 9.40002C40.874 5.84854 34.4048 5.64038 34.4048 4.07461ZM57.2501 13.8903L53.5348 0.3125H49.544C48.7178 0.3125 47.8917 0.730641 47.6163 1.35695L40.7363 13.8903H45.5533L46.5147 11.9064H52.4332L52.984 13.8903H57.2501ZM50.2325 3.96875L51.607 9.086H47.754L50.2325 3.96875Z" fill="#172B85"/>
</svg>
