<svg width="17" height="16" viewBox="0 0 17 16" fill="none" xmlns="http://www.w3.org/2000/svg">
<path d="M10.5 15.1667H6.49998C2.87998 15.1667 1.33331 13.62 1.33331 10V6.00004C1.33331 2.38004 2.87998 0.833374 6.49998 0.833374H10.5C14.12 0.833374 15.6666 2.38004 15.6666 6.00004V10C15.6666 13.62 14.12 15.1667 10.5 15.1667ZM6.49998 1.83337C3.42665 1.83337 2.33331 2.92671 2.33331 6.00004V10C2.33331 13.0734 3.42665 14.1667 6.49998 14.1667H10.5C13.5733 14.1667 14.6666 13.0734 14.6666 10V6.00004C14.6666 2.92671 13.5733 1.83337 10.5 1.83337H6.49998Z" fill="white"/>
</svg>
